# xmcd
#
# Track frame offsets:
#	150
#	33245
#	46200
#	59722
#	81270
#	105337
#	131602
#	151670
#	165387
#	185607
#	205067
#	227732
#
# Disc length: 3274 seconds
#
# Revision: 1
# Processed by: cddbd v1.5.1PL0 Copyright (c) Steve Scherf et al.
# Submitted via: audiograbber 1.83.01
#
DISCID=920cc80c
DTITLE=Various Artist - Ultimate 70's R and B
DYEAR=1900
DGENRE=R&B
TTITLE0=The O'Jays - For the love of money
TTITLE1=Earth Wind and Fire-Shining Star
TTITLE2=The Three Degrees-When will I see you again
TTITLE3=Billy Paul-Me and Mrs. Jones
TTITLE4=The Isley Brothers-Fight the Power (part 1 and 2)
TTITLE5=MFSB fe: The Three Degrees-TSOP(the sound of philadelphia)
TTITLE6=The Manhattans-Kiss and Say Goodbye
TTITLE7=Sly and The Family Stone-Family Affair
TTITLE8=Johnnie Taylor-Disco Lady
TTITLE9=Bill Withers-Lean on me
TTITLE10=Heatwave-Boogie Nights
TTITLE11=Labelle-Lady Marmalade
EXTD=
EXTT0=
EXTT1=
EXTT2=
EXTT3=
EXTT4=
EXTT5=
EXTT6=
EXTT7=
EXTT8=
EXTT9=
EXTT10=
EXTT11=
PLAYORDER=
